<?xml version="1.0" encoding="UTF-8"?>
<!DOCTYPE svg PUBLIC "-//W3C//DTD SVG 1.1//EN" "http://www.w3.org/Graphics/SVG/1.1/DTD/svg11.dtd">
<!-- Creator: CorelDRAW -->
<svg xmlns="http://www.w3.org/2000/svg" xml:space="preserve" width="1237px" height="1266px" style="shape-rendering:geometricPrecision; text-rendering:geometricPrecision; image-rendering:optimizeQuality; fill-rule:evenodd; clip-rule:evenodd"
viewBox="0 0 1237 1266">
 <defs>
  <style type="text/css">
   <![CDATA[
    .fil0 {fill:#0093DD}
    .fil1 {fill:white}
   ]]>
  </style>
 </defs>
 <g id="Layer_x0020_1">
  <metadata id="CorelCorpID_0Corel-Layer"/>
  <g id="_148220104">
   <polygon id="_24510480" class="fil0" points="1207.19,1237.07 27.7996,1237.07 27.7996,973.488 1207.19,973.488 "/>
   <g>
    <polygon id="_24509704" class="fil1" points="1236.22,973.488 -1.21654,973.488 -1.21654,-0.0897638 1236.22,-0.0897638 "/>
    <g>
     <g>
      <path id="_24509072" class="fil0" d="M617.441 137.972c242.508,0 457.555,119.418 589.748,302.528l0 -411.523 -1179.35 0 0 411.372c132.072,-182.992 347.144,-302.377 589.601,-302.377z"/>
      <path id="_24503008" class="fil0" d="M617.441 167.038c-245.532,0 -462.301,125.476 -589.601,315.662l0 461.703 1179.35 0 0 -461.544c-127.295,-190.271 -344.136,-315.82 -589.748,-315.82z"/>
      <path id="_24502744" class="fil1" d="M617.441 167.038c245.613,0 462.454,125.549 589.748,315.82l0 -42.3579c-132.194,-183.11 -347.241,-302.528 -589.748,-302.528 -242.457,0 -457.529,119.385 -589.601,302.377l0 42.3508c127.299,-190.186 344.068,-315.662 589.601,-315.662z"/>
     </g>
     <g>
      <path id="_24502000" class="fil1" d="M143.998 651.466c-2.48504,4.86733 -4.31693,9.39095 -5.81457,13.7693 -47.4,14.1685 -78.9709,1.5874 -81.0745,0.675591 -4.71614,-1.96063 -10.1811,0.219685 -12.15,4.93229 -2.04685,4.73622 0.11811,10.1315 4.86614,12.15 2.23347,1.00866 35.0717,14.4366 84.1182,2.6126 -0.011811,0.617717 -0.121654,1.30984 -0.121654,1.92047 0,13.7941 5.8063,23.1933 13.4162,28.1244 21.2965,13.8921 68.1756,2.04331 136.202,-67.4067 -4.39134,12.548 -8.33741,26.2772 -10.8685,40.5024 -0.0980316,0.61063 -0.13937,1.25315 -0.13937,1.81536 0,3.90591 2.29488,7.44567 5.94567,8.89489 7.34882,2.98583 11.576,-3.1252 15.2988,-8.45552l9.42875 -14.0539c8.17441,-12.2894 26.5335,-39.9425 38.9882,-54.3969 -1.51772,7.94174 -3.0437,16.9122 -3.0437,25.4079 0,11.4839 2.77914,21.998 12.0697,27.4335 7.78819,4.50945 20.2512,6.12048 47.2937,-10.0016 2.26654,6.25867 6.84804,9.22087 9.48071,10.4575 17.2689,8.00788 49.813,-9.30945 83.7768,-41.7945 -4.58504,10.2756 -8.08465,18.8291 -8.99646,22.4185 -0.219685,0.992127 -0.312992,1.9441 -0.312992,2.79921 0,4.31339 2.61142,7.43032 5.62678,8.80512 7.46693,3.28819 12.2114,-3.25512 15.9626,-8.59371l10.2378 -14.7945c8.5004,-12.5386 28.4669,-41.9173 40.1327,-54.1158 3.45827,8.44725 9.61182,19.1079 20.6917,25.3205 -3.21969,7.28386 -4.8378,13.5791 -4.8378,18.848 0,6.4878 2.43662,11.387 7.30276,14.7 8.73308,5.93977 21.9933,2.67756 35.8158,-4.84252 -44.1201,43.7823 -64.4126,87.3945 -65.0516,106.754 -0.0200788,0.359055 -0.0200788,0.748819 -0.0200788,1.10669 0,10.7917 5.30197,15.1205 8.5689,16.741 6.69804,3.36024 14.8725,1.26969 24.3614,-6.23386 33.2315,-26.4 57.4229,-89.0221 69.7843,-127.352 16.5721,-13.5071 35.9858,-26.6622 58.2709,-38.6776 -7.23426,12.6945 -11.3327,24.6945 -11.3327,34.4067 0,3.49961 0.529134,6.73701 1.5378,9.5693 2.56063,6.79489 8.05394,11.1402 15.0437,11.8571 15.3284,1.67599 36.5315,-14.3882 61.5402,-45.2422 -2.13307,6.13229 -4.2567,12.0898 -6.36024,17.9291 -69.4335,54.7052 -100.65,113.21 -104.646,144.939 -0.357874,2.58898 -0.537402,4.96418 -0.537402,7.17048 0,12.6461 5.09882,18.5055 9.7819,21.1665 5.28189,3.00355 14.2665,4.44331 27.4571,-5.64804 14.6894,-11.2134 49.7233,-66.1134 83.6422,-156.559 45.0402,-34.5921 106.771,-67.6949 188.891,-90.3863 4.11378,-1.16339 6.8563,-4.88622 6.8563,-9.013 0,-0.788977 -0.141732,-1.63937 -0.35315,-2.43662 -1.38425,-4.98071 -6.50315,-7.85315 -11.511,-6.49843 -71.7083,19.8815 -128.524,47.6504 -172.905,77.7497 5.29016,-15.6945 10.5508,-32.2961 15.6614,-49.7551 0.252756,-0.870473 0.362599,-1.72913 0.362599,-2.61969 0,-3.56103 -2.08347,-6.94252 -5.47323,-8.46851 -4.22717,-1.89213 -9.19607,-0.382677 -11.6539,3.49134 -46.2721,72.6674 -72.4843,85.8591 -78.2634,85.7457 -0.333071,-0.635433 -0.564567,-1.53425 -0.564567,-2.84055 0,-8.28426 7.09961,-28.9843 29.9965,-53.2429 1.62756,-1.76221 2.55945,-4.05709 2.55945,-6.38504 0,-1.85079 -0.61063,-3.7004 -1.71378,-5.29961 -2.53819,-3.5811 -7.22245,-4.9689 -11.2583,-3.26811 -29.2158,12.3602 -54.3933,26.9882 -76.2886,42.4996 0.231496,-0.882284 0.427559,-1.57087 0.475985,-1.86378 0.161811,-0.768898 0.346063,-1.49764 0.346063,-2.25354 0,-3.38977 -1.94528,-6.61654 -5.0504,-8.21575 -0.191339,-0.0696851 -0.324803,-0.0696851 -0.496063,-0.142913 6.39213,-5.02914 12.9803,-10.5626 19.9099,-16.9547 7.29567,-6.80788 9.17481,-12.9591 9.17481,-17.5406 0,-2.00197 -0.373229,-3.6626 -0.797245,-4.96772 -2.1437,-6.57638 -8.22756,-10.9051 -16.5721,-11.9067 -20.5453,-2.39646 -53.0811,15.0106 -82.2473,57.926 -9.94489,-5.32323 -13.839,-18.3106 -15.6413,-24.248l-0.728741 -2.36811c-1.20473,-3.8941 -4.74449,-6.33426 -8.86182,-6.313 -6.28347,0.0720473 -13.0618,4.40906 -23.654,16.8567 0.142913,-0.285827 0.284646,-0.61063 0.468898,-0.850394 0.594095,-1.29921 0.857481,-2.67402 0.857481,-4.03701 0,-3.17008 -1.61929,-6.22087 -4.46339,-7.963 -4.12559,-2.46969 -9.42757,-1.42795 -12.2681,2.39646 -51.8303,69.7973 -97.2048,89.191 -104.304,85.6595 -0.0496063,-0.212599 -0.212599,-0.708662 -0.212599,-1.90512 0,-0.788977 0.142913,-1.93701 0.37441,-3.29646 11.5925,-8.28308 25.2614,-19.1091 41.4603,-33.1925 15.0095,-13.0406 18.4606,-23.5795 18.4606,-30.541 0,-3.17835 -0.737008,-5.57481 -1.3748,-7.14213 -3.07677,-7.18583 -10.4823,-11.1697 -19.4339,-10.3795 -19.2343,1.65945 -43.2709,24.1701 -55.3713,69.9768 -30.0461,20.5158 -38.1591,17.3988 -39.2504,16.7634 -4.08898,-2.35158 -3.76299,-15.2173 0.900001,-38.2134 2.03386,-10.2177 2.98229,-14.8595 0.687402,-19.1079 -2.23819,-4.17874 -6.13229,-6.6567 -10.6854,-6.86103 -9.76182,-0.475985 -20.8288,9.75355 -43.8154,42.2587 9.1193,-21.6614 17.9976,-36.5327 18.1725,-36.7524 0.920079,-1.53071 1.34291,-3.17835 1.34291,-4.82599 0,-2.91378 -1.35473,-5.78622 -3.93544,-7.61693 -3.94134,-2.82402 -9.42638,-2.06811 -12.5646,1.72913 -81.7418,99.7784 -137.321,120.522 -153.186,110.203 -3.38977,-2.22992 -5.0374,-6.55158 -5.0374,-12.3378 0,-2.39173 0.382677,-5.08583 0.951969,-7.95827 30.6106,-10.8969 65.9906,-31.8201 103.462,-70.2213 22.115,-22.5992 33.9803,-43.8059 33.9803,-59.9115 0,-3.62953 -0.585827,-6.97796 -1.79764,-10.0335 -3.27992,-8.35749 -10.8366,-13.4563 -20.6705,-13.9606 -29.3669,-1.35473 -79.1634,36.9662 -124.285,125.782zm123.405 -107.186c3.45118,0.178347 3.99567,1.51772 4.2815,2.16496 0.279921,0.837402 0.491339,1.95236 0.491339,3.23386 0,8.0941 -7.0878,24.8162 -28.7185,46.9429 -28.976,29.6799 -56.38,48.1146 -80.8312,59.3044 42.9851,-82.7375 86.902,-112.488 104.777,-111.646zm183.305 48.7784c3.04488,-1.62874 5.2004,-1.97008 6.46182,-1.97008 -0.47126,2.20512 -2.84055,7.57678 -11.9256,15.5197 -6.76772,5.83465 -13.0087,11.1083 -18.7335,15.7595 9.45591,-19.8579 20.2299,-27.2339 24.1973,-29.3091zm206.3 -31.9772c3.39685,-0.790158 5.72481,-0.810237 7.21418,-0.615355 -0.496063,0.635433 -1.03347,1.35591 -2.04685,2.24646 -21.3543,19.8071 -40.1528,32.4213 -55.0418,37.3075 23.3079,-30.2492 43.4977,-37.4209 49.8744,-38.9386zm-28.0559 49.6926c-18.0059,15.9225 -34.3831,23.2595 -40.1823,23.2795 0.0696851,-1.74921 0.850394,-5.79804 4.45985,-13.3134 10.6122,0.394488 22.4894,-2.86536 35.7225,-9.96615zm-7.21063 51.4677c-12.6461,32.5276 -30.5752,69.0178 -52.1646,86.1319 -1.06181,0.846851 -1.96181,1.50591 -2.73071,2.04331 0.973229,-13.4445 17.4118,-49.5603 54.8953,-88.1753zm61.3359 115.283c0,-4.27205 0.960237,-11.1165 4.43977,-20.9469 8.52756,-24.365 29.9067,-59.0339 67.7729,-94.5308 -28.487,68.3504 -55.1563,108.773 -64.93,116.348 -3.19725,2.40118 -5.43071,3.47599 -6.62363,3.82559 -0.35315,-0.846851 -0.659056,-2.23819 -0.659056,-4.69607z"/>
      <path id="_24501840" class="fil1" d="M949.307 336.878c-5.76496,0 -10.8839,3.48662 -13.0122,8.85827 0,0 -51.0461,130.932 -56.9044,145.886 -16.0158,0.878741 -155.645,8.2441 -155.645,8.2441 -7.40552,0.394488 -13.2118,6.54685 -13.2118,13.891 0,0.232677 0.0401575,0.49252 0.0401575,0.748819 0.39567,7.65827 6.92953,13.5461 14.6693,13.1799l164.608 -8.72835c5.43189,-0.264567 10.2496,-3.75591 12.2516,-8.83347 0,0 31.1681,-80.0823 47.1721,-121.037 15.9142,40.8815 46.9524,120.553 46.9524,120.553 1.97362,5.07756 6.73819,8.50867 12.1299,8.84174 0,0 85.0016,4.86614 128.443,7.38544 -33.4961,27.8067 -99.2032,82.4375 -99.2032,82.4375 -3.27166,2.6811 -5.08229,6.58701 -5.08229,10.6843 0,1.17284 0.142913,2.32795 0.427559,3.45118 0,0 21.0933,82.4599 31.9666,124.729 -36.5894,-23.5925 -107.874,-69.5965 -107.874,-69.5965 -4.54134,-2.96221 -10.4575,-2.96221 -15.0225,-0.0732284 0,0 -72.0709,45.9071 -109.4,69.6284 11.3894,-41.0563 31.8437,-114.959 31.8437,-114.959 0.264567,-1.21299 0.455906,-2.49803 0.455906,-3.70276 0,-6.1193 -4.02402,-11.6823 -10.2248,-13.4114 -7.4067,-2.04685 -15.1169,2.30669 -17.139,9.72875l-41.4071 149.843c-1.52953,5.50158 0.49252,11.4673 5.12717,14.8772 4.63465,3.41811 10.9252,3.57992 15.7925,0.529134 0,0 118.839,-75.652 132.357,-84.2457 13.3866,8.65985 130.26,84.0331 130.26,84.0331 4.83898,3.10158 11.0114,2.96339 15.7028,-0.382677 3.65433,-2.67638 5.8063,-6.88347 5.8063,-11.2866 0,-1.14803 -0.191339,-2.35984 -0.484252,-3.45827 0,0 -34.6996,-135.336 -38.5855,-150.617 12.0886,-10.0831 119.628,-99.3934 119.628,-99.3934 3.21024,-2.70118 5.04213,-6.63662 5.04213,-10.6925 0,-1.48937 -0.244488,-2.92559 -0.728741,-4.35 -1.74095,-5.43189 -6.67678,-9.20906 -12.3945,-9.54213 0,0 -138.769,-7.963 -154.756,-8.90316 -5.85473,-14.8925 -56.6528,-145.459 -56.6528,-145.459 -2.06339,-5.3504 -7.24252,-8.85827 -12.9484,-8.85827z"/>
     </g>
    </g>
   </g>
   <polygon id="_24499960" class="fil1" points="1207.19,973.488 1207.19,1237.07 27.7996,1237.07 27.7996,973.488 -1.21654,973.488 -1.21654,1237.07 -1.21654,1266.09 27.7996,1266.09 1207.19,1266.09 1236.18,1266.09 1236.22,1266.09 1236.22,973.488 "/>
   <g>
    <polygon id="_24499296" class="fil1" points="78.6662,1179.03 78.6662,1031.53 154.663,1031.53 154.663,1047.89 97.4528,1047.89 97.4528,1095.28 150.574,1095.28 150.574,1111.64 97.4528,1111.64 97.4528,1162.69 155.888,1162.69 155.888,1179.03 "/>
    <polygon id="_24498632" class="fil1" points="280.555,1031.53 280.555,1179.03 254.805,1179.03 196.595,1051.16 196.184,1051.16 196.184,1179.03 179.427,1179.03 179.427,1031.53 205.974,1031.53 263.395,1157.79 263.79,1157.79 263.79,1031.53 "/>
    <polygon id="_148225832" class="fil1" points="306.625,1179.03 306.625,1031.53 382.634,1031.53 382.634,1047.89 325.423,1047.89 325.423,1095.28 378.544,1095.28 378.544,1111.64 325.423,1111.64 325.423,1162.69 383.855,1162.69 383.855,1179.03 "/>
    <path id="_148224968" class="fil1" d="M425.273 1047.89l28.4103 0c14.485,0 19.8154,11.8335 19.8154,22.461 0,12.8988 -6.54213,24.5197 -20.0398,24.5197l-28.1858 0 0 -46.9807zm22.0547 63.3378c6.35552,0 20.8406,0.798426 22.2697,18.7914 1.63583,19.6051 0.422835,38.8264 5.73307,49.0158l19.6169 0c-2.88189,-9.15591 -4.91575,-32.2843 -5.1189,-38.6079 -1.00984,-29.6374 -7.12087,-35.3185 -24.0969,-37.9878l0 -0.422835c17.3504,-3.06024 26.961,-16.3169 26.961,-33.691 0,-18.3851 -9.1878,-36.7925 -35.3599,-36.7925l-50.8548 0 0 147.502 18.7949 0 0 -67.8071 22.0547 0z"/>
    <path id="_148224128" class="fil1" d="M583.7 1070.97c0,-17.3917 -7.14095,-26.7744 -26.1721,-26.7744 -5.91615,0 -27.1524,1.01693 -27.1524,31.8851l0 49.8532c0,32.2831 9.39922,40.4386 27.1524,40.4386 13.5047,0 22.4811,-3.6874 26.387,-6.53504l0 -44.1331 -27.1843 0 0 -16.3417 45.9721 0 0 71.7296c-12.0614,6.53386 -26.1437,11.0268 -45.1748,11.0268 -31.2378,0 -46.363,-16.1788 -46.363,-57.0237l0 -48.4122c0,-29.4106 15.1252,-48.2185 46.363,-48.2185 31.9016,0 47.0256,11.6457 45.7807,42.5055l-19.6087 0z"/>
    <polygon id="_148223496" class="fil1" points="692.736,1031.53 711.726,1031.53 671.506,1122.82 671.506,1179.03 652.727,1179.03 652.727,1122.82 613.07,1031.53 634.122,1031.53 662.924,1102.83 "/>
    <path id="_148223112" class="fil1" d="M775.219 1135.11l0 4.2815c0,20.0351 12.6945,26.3752 24.7347,26.3752 14.9221,0 26.3551,-6.34016 26.3551,-23.9103 0,-32.6823 -66.2067,-28.9866 -66.2067,-73.356 0,-26.1307 18.5953,-40.0311 43.3512,-40.0311 26.961,0 42.0862,13.0784 40.8331,43.1233l-19.6087 0c0.194882,-16.1622 -4.90276,-26.7815 -22.6606,-26.7815 -11.2583,0 -22.6807,5.713 -22.6807,21.6626 0,32.4792 66.2032,27.7996 66.2032,74.5607 0,31.0547 -21.4689,41.0894 -45.7973,41.0894 -43.5142,0.37441 -43.5142,-32.9103 -43.0985,-47.0138l18.5752 0z"/>
    <polygon id="_148222488" class="fil1" points="950.431,1031.53 950.431,1047.89 911.62,1047.89 911.62,1179.03 892.814,1179.03 892.814,1047.89 853.999,1047.89 853.999,1031.53 "/>
    <path id="_148222104" class="fil1" d="M1016.74 1127.56l-47.1839 0 23.0669 -78.6532 0.402756 0 23.7142 78.6532zm-81.9048 51.4654l18.9815 0 11.048 -35.1484 57.0071 0 10.5992 35.1484 21.0449 0 -48.0024 -147.502 -23.9091 0 -46.7693 147.502z"/>
    <path id="_148220648" class="fil1" d="M1086.8 1047.89l28.3973 0c14.5063,0 19.8165,11.8335 19.8165,22.461 0,12.8988 -6.57638,24.5197 -20.028,24.5197l-28.1858 0 0 -46.9807zm22.0536 63.3378c6.3437,0 20.85,0.798426 22.278,18.7914 1.62756,19.6051 0.402756,38.8264 5.73307,49.0158l19.5886 0c-2.86418,-9.15591 -4.86614,-32.2843 -5.07874,-38.6079 -1.01221,-29.6374 -7.16457,-35.3185 -24.1205,-37.9878l0 -0.422835c17.3303,-3.06024 26.941,-16.3169 26.941,-33.691 0,-18.3851 -9.18426,-36.7925 -35.3351,-36.7925l-50.8666 0 0 147.502 18.8067 0 0 -67.8071 22.0536 0z"/>
   </g>
  </g>
 </g>
</svg>
